<svg width="36" height="40" viewBox="0 0 36 40" fill="none" xmlns="http://www.w3.org/2000/svg">
<path d="M24.4318 10.5682C24.4318 6.98905 21.5337 4.09091 17.9546 4.09091C14.3754 4.09091 11.4773 6.98905 11.4773 10.5682C11.4773 14.1473 14.3754 17.0455 17.9546 17.0455C21.5337 17.0455 24.4318 14.1473 24.4318 10.5682ZM28.5227 10.5682C28.5227 16.4067 23.793 21.1364 17.9546 21.1364C12.1161 21.1364 7.38637 16.4067 7.38637 10.5682C7.38637 4.7297 12.1161 0 17.9546 0C23.793 0 28.5227 4.7297 28.5227 10.5682ZM4.09091 34.3831C4.09091 36.1305 3.88462 35.9091 4.85294 35.9091H31.0562C32.0245 35.9091 31.8182 36.1305 31.8182 34.3831C31.8182 30.0818 25.5041 27.5 17.9546 27.5C10.405 27.5 4.09091 30.0818 4.09091 34.3831ZM0 34.3831C0 26.8222 8.34725 23.4091 17.9546 23.4091C27.5619 23.4091 35.9091 26.8222 35.9091 34.3831C35.9091 38.3277 34.3511 40 31.0562 40H4.85294C1.55804 40 0 38.3277 0 34.3831Z" fill="#3F8AE0"/>
</svg>
